<?xml version="1.0" standalone="no"?>
<!DOCTYPE svg PUBLIC "-//W3C//DTD SVG 20010904//EN"
 "http://www.w3.org/TR/2001/REC-SVG-20010904/DTD/svg10.dtd">
<svg version="1.0" xmlns="http://www.w3.org/2000/svg"
 width="225.000000pt" height="225.000000pt" viewBox="0 0 225.000000 225.000000"
 preserveAspectRatio="xMidYMid meet">
<metadata>
Created by potrace 1.11, written by Peter Selinger 2001-2013
</metadata>
<g transform="translate(0.000000,225.000000) scale(0.100000,-0.100000)"
fill="#000000" stroke="none">
<path d="M662 1531 c-63 -16 -122 -43 -122 -55 0 -12 30 -118 34 -123 1 -2 24
6 52 16 106 40 216 35 249 -12 31 -44 21 -54 -58 -60 -209 -18 -327 -110 -327
-257 0 -62 24 -123 61 -157 83 -76 249 -74 331 4 l27 25 6 -36 7 -36 97 0 96
0 -3 65 -4 65 -49 0 c-40 0 -55 5 -81 29 -28 25 -33 36 -33 76 0 41 5 51 36
79 32 29 34 35 22 52 -7 10 -13 36 -13 59 0 47 26 79 73 90 15 4 27 9 27 11 0
16 -43 83 -67 105 -56 53 -89 63 -213 66 -63 1 -130 -2 -148 -6z m238 -412 c0
-51 -21 -102 -51 -123 -33 -23 -104 -21 -129 4 -38 38 -20 113 33 141 22 12
126 28 140 21 4 -2 7 -21 7 -43z"/>
<path d="M1260 1519 c-52 -23 -102 -68 -136 -121 -28 -43 -29 -48 -11 -48 23
0 47 -35 47 -67 0 -45 -8 -61 -46 -86 l-33 -23 48 -54 47 -53 12 29 c6 16 14
41 18 57 4 18 13 27 26 27 18 0 19 -4 13 -37 -3 -21 -15 -53 -26 -72 l-20 -34
32 -33 33 -34 -31 0 c-21 0 -37 7 -46 21 -15 20 -16 20 -41 4 l-27 -18 24 -31
c13 -17 46 -44 72 -61 39 -24 61 -30 121 -33 85 -5 128 7 172 48 18 17 34 30
35 30 2 0 0 -27 -3 -60 -6 -63 -25 -98 -74 -134 -39 -30 -168 -28 -245 2 -30
12 -56 21 -56 19 -5 -6 -35 -138 -35 -150 0 -43 268 -74 383 -44 116 30 182
90 223 202 16 44 18 93 22 408 l4 358 -94 -3 -93 -3 -5 -40 -5 -39 -17 26
c-43 66 -193 90 -288 47z m220 -154 c47 -24 60 -61 60 -173 0 -87 -3 -103 -23
-133 -43 -64 -136 -69 -189 -10 -16 18 -31 51 -38 85 -33 161 74 291 190 231z"/>
<path d="M1052 1314 c-24 -17 -28 -49 -10 -89 14 -31 17 -31 51 0 30 29 35 66
11 89 -19 20 -24 20 -52 0z"/>
<path d="M1012 1135 c-40 -51 -21 -117 38 -130 30 -7 81 11 87 30 1 6 -21 37
-50 69 l-53 59 -22 -28z"/>
</g>
</svg>
